<svg width="20" height="15" viewBox="0 0 20 15" fill="none" xmlns="http://www.w3.org/2000/svg">
<g clip-path="url(#clip0_1662_723)">
<rect width="20" height="15" fill="white"/>
<path fill-rule="evenodd" clip-rule="evenodd" d="M0 0V15H20V0H0Z" fill="#FFB400"/>
<mask id="mask0_1662_723" style="mask-type:luminance" maskUnits="userSpaceOnUse" x="0" y="0" width="20" height="15">
<path fill-rule="evenodd" clip-rule="evenodd" d="M0 0V15H20V0H0Z" fill="white"/>
</mask>
<g mask="url(#mask0_1662_723)">
<path fill-rule="evenodd" clip-rule="evenodd" d="M0 0V3.75H20V0H0Z" fill="#C51918"/>
<path fill-rule="evenodd" clip-rule="evenodd" d="M0 11.25V15H20V11.25H0Z" fill="#C51918"/>
<rect x="3.13" y="6.42" width="0.7" height="3.64" fill="#F1F9FF"/>
<path d="M4.10974 6.13961H3.89978V6.41988H3.05994V6.13961H2.84998V5.79H4.10974V6.13961Z" fill="#C88A02"/>
<path fill-rule="evenodd" clip-rule="evenodd" d="M3.89998 10.27H4.10998V10.62H2.84998V10.27H3.05998V9.99H3.89998V10.27Z" fill="#C88A02"/>
<path fill-rule="evenodd" clip-rule="evenodd" d="M3.47999 5.86C3.63232 5.86 3.64781 5.80264 3.73768 5.71697C3.80746 5.65044 3.96999 5.56794 3.96999 5.475C3.96999 5.26237 3.75061 5.09 3.47999 5.09C3.20937 5.09 2.98999 5.26237 2.98999 5.475C2.98999 5.57854 3.10191 5.64778 3.18654 5.71697C3.2757 5.78987 3.34115 5.86 3.47999 5.86Z" fill="#AD1619"/>
<path fill-rule="evenodd" clip-rule="evenodd" d="M2.84998 10.62H4.10998V11.18C4.10998 11.18 3.95248 11.11 3.79498 11.11C3.63748 11.11 3.47998 11.18 3.47998 11.18C3.47998 11.18 3.32248 11.11 3.16498 11.11C3.00748 11.11 2.84998 11.18 2.84998 11.18V10.62Z" fill="#005BBF"/>
<mask id="mask1_1662_723" style="mask-type:luminance" maskUnits="userSpaceOnUse" x="2" y="10" width="3" height="2">
<path fill-rule="evenodd" clip-rule="evenodd" d="M2.84998 10.62H4.10998V11.18C4.10998 11.18 3.95248 11.11 3.79498 11.11C3.63748 11.11 3.47998 11.18 3.47998 11.18C3.47998 11.18 3.32248 11.11 3.16498 11.11C3.00748 11.11 2.84998 11.18 2.84998 11.18V10.62Z" fill="white"/>
</mask>
<g mask="url(#mask1_1662_723)">
<path d="M2.83854 11.07L2.81104 11.0029C2.92452 10.9524 3.03841 10.9271 3.15248 10.9271C3.22617 10.9271 3.26465 10.9373 3.33007 10.9664C3.38753 10.992 3.41732 11 3.48016 11C3.54301 11 3.5728 10.992 3.63026 10.9664C3.69568 10.9373 3.73416 10.9271 3.80785 10.9271C3.92192 10.9271 4.03581 10.9524 4.14929 11.0029L4.12179 11.07C4.01682 11.0232 3.91225 11 3.80785 11C3.74501 11 3.71522 11.0079 3.65776 11.0335C3.59234 11.0626 3.55386 11.0729 3.48016 11.0729C3.40647 11.0729 3.36799 11.0626 3.30257 11.0335C3.24511 11.0079 3.21532 11 3.15248 11C3.04808 11 2.94351 11.0232 2.83854 11.07Z" fill="white"/>
<path d="M2.83854 10.86L2.81104 10.7929C2.92452 10.7424 3.03841 10.717 3.15248 10.717C3.22617 10.717 3.26465 10.7273 3.33007 10.7564C3.38753 10.782 3.41732 10.79 3.48016 10.79C3.54301 10.79 3.5728 10.782 3.63026 10.7564C3.69568 10.7273 3.73416 10.717 3.80785 10.717C3.92192 10.717 4.03581 10.7424 4.14929 10.7929L4.12179 10.86C4.01682 10.8132 3.91225 10.79 3.80785 10.79C3.74501 10.79 3.71522 10.7979 3.65776 10.8235C3.59234 10.8526 3.55386 10.8629 3.48016 10.8629C3.40647 10.8629 3.36799 10.8526 3.30257 10.8235C3.24511 10.7979 3.21532 10.79 3.15248 10.79C3.04808 10.79 2.94351 10.8132 2.83854 10.86Z" fill="white"/>
</g>
<rect x="9.98999" y="6.42" width="0.7" height="3.64" fill="#F1F9FF"/>
<path d="M10.9697 6.13961H10.7598V6.41988H9.91992V6.13961H9.70996V5.79H10.9697V6.13961Z" fill="#C88A02"/>
<path fill-rule="evenodd" clip-rule="evenodd" d="M10.76 10.27H10.97V10.62H9.70996V10.27H9.91996V9.99H10.76V10.27Z" fill="#C88A02"/>
<path fill-rule="evenodd" clip-rule="evenodd" d="M10.34 5.86C10.4923 5.86 10.5078 5.80264 10.5977 5.71697C10.6674 5.65044 10.83 5.56794 10.83 5.475C10.83 5.26237 10.6106 5.09 10.34 5.09C10.0694 5.09 9.84998 5.26237 9.84998 5.475C9.84998 5.57854 9.9619 5.64778 10.0465 5.71697C10.1357 5.78987 10.2011 5.86 10.34 5.86Z" fill="#AD1619"/>
<path fill-rule="evenodd" clip-rule="evenodd" d="M9.70996 10.62H10.97V11.18C10.97 11.18 10.8125 11.11 10.655 11.11C10.4975 11.11 10.34 11.18 10.34 11.18C10.34 11.18 10.1825 11.11 10.025 11.11C9.86746 11.11 9.70996 11.18 9.70996 11.18V10.62Z" fill="#005BBF"/>
<mask id="mask2_1662_723" style="mask-type:luminance" maskUnits="userSpaceOnUse" x="9" y="10" width="2" height="2">
<path fill-rule="evenodd" clip-rule="evenodd" d="M9.70996 10.62H10.97V11.18C10.97 11.18 10.8125 11.11 10.655 11.11C10.4975 11.11 10.34 11.18 10.34 11.18C10.34 11.18 10.1825 11.11 10.025 11.11C9.86746 11.11 9.70996 11.18 9.70996 11.18V10.62Z" fill="white"/>
</mask>
<g mask="url(#mask2_1662_723)">
<path d="M9.69852 11.07L9.67102 11.0029C9.78451 10.9524 9.8984 10.9271 10.0125 10.9271C10.0862 10.9271 10.1246 10.9373 10.1901 10.9664C10.2475 10.992 10.2773 11 10.3401 11C10.403 11 10.4328 10.992 10.4902 10.9664C10.5557 10.9373 10.5941 10.9271 10.6678 10.9271C10.7819 10.9271 10.8958 10.9524 11.0093 11.0029L10.9818 11.07C10.8768 11.0232 10.7722 11 10.6678 11C10.605 11 10.5752 11.0079 10.5177 11.0335C10.4523 11.0626 10.4138 11.0729 10.3401 11.0729C10.2665 11.0729 10.228 11.0626 10.1626 11.0335C10.1051 11.0079 10.0753 11 10.0125 11C9.90806 11 9.8035 11.0232 9.69852 11.07Z" fill="white"/>
<path d="M9.69852 10.86L9.67102 10.7929C9.78451 10.7424 9.8984 10.717 10.0125 10.717C10.0862 10.717 10.1246 10.7273 10.1901 10.7564C10.2475 10.782 10.2773 10.79 10.3401 10.79C10.403 10.79 10.4328 10.782 10.4902 10.7564C10.5557 10.7273 10.5941 10.717 10.6678 10.717C10.7819 10.717 10.8958 10.7424 11.0093 10.7929L10.9818 10.86C10.8768 10.8132 10.7722 10.79 10.6678 10.79C10.605 10.79 10.5752 10.7979 10.5177 10.8235C10.4523 10.8526 10.4138 10.8629 10.3401 10.8629C10.2665 10.8629 10.228 10.8526 10.1626 10.8235C10.1051 10.7979 10.0753 10.79 10.0125 10.79C9.90806 10.79 9.8035 10.8132 9.69852 10.86Z" fill="white"/>
</g>
<path fill-rule="evenodd" clip-rule="evenodd" d="M3.11747 9.79996C3.24367 9.64695 3.31425 9.50776 3.31425 9.35991C3.31425 9.2667 3.28651 9.18618 3.23791 9.12041L3.24612 9.11672C3.24536 9.11706 3.38457 9.05638 3.43303 9.03314C3.52313 8.98995 3.6025 8.94419 3.67989 8.88791C3.7293 8.85198 3.7955 8.81285 3.89641 8.75866L3.99125 8.70821L4.01685 8.69462C4.06589 8.66845 4.10242 8.6484 4.13635 8.62872C4.24208 8.56739 4.31195 8.5167 4.36539 8.44893C4.49196 8.28842 4.46568 8.07085 4.28831 7.95009C4.20141 7.89092 4.08415 7.85697 3.91225 7.83025L3.87665 7.82474L3.6664 7.79214C3.58415 7.77923 3.51075 7.76717 3.44531 7.75574C3.87566 7.68413 4.49019 7.71045 4.7605 7.85001L5.01741 7.35242C4.46657 7.06802 3.21149 7.09706 2.74265 7.41993C2.39878 7.65675 2.44492 8.01473 2.80271 8.16887C2.95221 8.23328 3.1471 8.27602 3.50776 8.33397C3.44732 8.36903 3.39721 8.40106 3.35052 8.43501C3.30318 8.46944 3.25245 8.49869 3.19092 8.52819C3.16149 8.5423 3.07434 8.58057 3.0344 8.5981L3.01432 8.60695C2.72289 8.73946 2.58146 8.92277 2.62372 9.25369L2.6466 9.43282L2.68764 9.44543L3.11747 9.79996ZM2.75723 9.33703L2.75634 9.3396L2.75702 9.33778L2.75723 9.33703ZM10.4412 9.35991C10.4412 9.50776 10.5118 9.64695 10.638 9.79996L11.0678 9.44543L11.1089 9.43282L11.1317 9.25369C11.174 8.92277 11.0326 8.73946 10.7411 8.60695L10.7211 8.59811L10.721 8.59807C10.681 8.58052 10.594 8.54229 10.5645 8.52819C10.503 8.49869 10.4523 8.46944 10.4049 8.43501C10.3583 8.40106 10.3081 8.36903 10.2477 8.33397C10.6084 8.27602 10.8033 8.23328 10.9528 8.16887C11.3105 8.01473 11.3567 7.65675 11.0128 7.41993C10.544 7.09706 9.2889 7.06802 8.73806 7.35242L8.99497 7.85001C9.26528 7.71045 9.8798 7.68413 10.3102 7.75574C10.2447 7.76717 10.1713 7.77923 10.0891 7.79214L9.87879 7.82474L9.84321 7.83025C9.67132 7.85697 9.55405 7.89092 9.46715 7.95009C9.28978 8.07085 9.2635 8.28842 9.39008 8.44893C9.44352 8.5167 9.51339 8.56739 9.61912 8.62872C9.65305 8.6484 9.68957 8.66845 9.73862 8.69462L9.76429 8.70825L9.85905 8.75866C9.95997 8.81285 10.0262 8.85198 10.0756 8.88791C10.153 8.94419 10.2323 8.98995 10.3224 9.03314C10.3709 9.05638 10.5101 9.11706 10.5093 9.11672L10.5176 9.12041C10.469 9.18618 10.4412 9.2667 10.4412 9.35991Z" fill="#AD1619"/>
<path d="M3.7021 7.75L3.90872 7.79274V8.1007C3.68866 8.27629 3.13 8.57223 3.13 8.57223V7.75H3.7021Z" fill="#F1F9FF"/>
<path d="M10.1966 7.75L9.98996 7.79274V8.1007C10.21 8.27629 10.7687 8.57223 10.7687 8.57223V7.75H10.1966Z" fill="#F1F9FF"/>
<path fill-rule="evenodd" clip-rule="evenodd" d="M9.23497 4.50374V4.40125C8.87492 4.14284 8.49787 4.01364 8.10382 4.01364C7.72606 3.84647 7.34369 3.78158 6.95671 3.81897C6.95681 3.81777 6.95687 3.81717 6.95687 3.81717C6.37501 3.76023 5.78861 4.01364 5.78861 4.01364C5.19755 4.01364 4.65747 4.40125 4.65747 4.40125V4.50374L5.36349 5.21282C5.36349 5.21282 5.56222 5.89531 6.95399 5.73491V5.73664C6.95399 5.73664 7.87546 5.71149 7.94021 5.68995C7.9659 5.68141 7.99254 5.67363 8.01977 5.66568C8.20026 5.61299 8.4063 5.55283 8.52895 5.21282L9.23497 4.50374ZM6.95399 3.85032C6.9339 4.0864 6.81917 5.50948 6.95399 5.73011V3.85032Z" fill="#AD1619"/>
<path d="M8.04358 4.68838C8.05908 4.86228 8.10621 4.94426 8.17639 4.95596C8.27224 4.97156 8.3453 4.96393 8.39612 4.93643L8.49963 4.88076V4.97549C8.53207 4.97893 8.58766 4.97345 8.6637 4.95694L8.68518 5.05752L9.20178 4.57315L9.24963 4.62393L8.60803 5.22842C8.51468 5.40037 8.46764 5.51394 8.46741 5.56143C8.46741 5.63359 8.27913 5.67661 7.91272 5.72061C7.62584 5.75504 7.28734 5.77573 7.01038 5.7792V5.78213C6.99856 5.78213 6.98633 5.78026 6.97424 5.78018C6.96272 5.78025 6.95134 5.78213 6.94006 5.78213V5.7792C6.66292 5.77575 6.32387 5.75508 6.03674 5.72061C5.67044 5.67662 5.48303 5.63358 5.48303 5.56143C5.48298 5.5513 5.47953 5.53843 5.47522 5.52237C5.44401 5.48022 5.42141 5.41715 5.40491 5.35635C5.3864 5.31845 5.36674 5.27504 5.34143 5.22842L5.19885 5.09365H5.19592V5.0917L4.69983 4.62393L4.74768 4.57315L5.2135 5.01065L5.2262 4.95694C5.30223 4.97344 5.35784 4.97894 5.39026 4.97549V4.88076L5.49377 4.93643C5.54459 4.96391 5.61767 4.97155 5.7135 4.95596C5.78365 4.94422 5.83081 4.86223 5.84631 4.68838L5.87756 4.33682L5.98303 4.67373C6.03063 4.82627 6.10329 4.89346 6.20667 4.89346C6.3075 4.89344 6.34764 4.85669 6.35217 4.76358L6.36487 4.49893L6.48499 4.73526C6.52809 4.82033 6.58799 4.85928 6.67249 4.85928C6.79318 4.85907 6.87366 4.7575 6.87366 4.59951H7.01624C7.01624 4.75753 7.09668 4.8591 7.21741 4.85928C7.30192 4.85928 7.3618 4.82035 7.40491 4.73526L7.52405 4.49893L7.53674 4.76358C7.54127 4.85674 7.58233 4.89346 7.68323 4.89346C7.7866 4.89346 7.85926 4.82627 7.90686 4.67373L8.01233 4.33682L8.04358 4.68838ZM6.93616 5.41299C6.75198 5.42472 5.74315 5.49193 5.59045 5.56338C5.58838 5.56434 5.58566 5.56356 5.58362 5.56436C5.60623 5.57267 5.63686 5.58291 5.67542 5.5917C5.76545 5.61223 5.89374 5.63305 6.04553 5.65127C6.34218 5.68688 6.69487 5.70804 6.97522 5.70987C7.25557 5.70801 7.60839 5.68687 7.90491 5.65127C8.0567 5.63304 8.18503 5.61223 8.27502 5.5917C8.32054 5.58131 8.35553 5.57107 8.37854 5.56143C8.38647 5.55809 8.39299 5.55526 8.39709 5.55264C8.39795 5.54022 8.40182 5.52579 8.40588 5.50967C8.37398 5.55885 8.33484 5.58771 8.28284 5.56338C8.1292 5.49175 7.11612 5.42443 6.93616 5.41299ZM7.9469 4.9042C7.89076 4.97573 7.81833 5.0166 7.73206 5.02822C8.17577 5.09042 8.49069 5.17764 8.50452 5.18155C8.50452 5.18155 8.49225 5.26329 8.46838 5.35244C8.49064 5.30526 8.51637 5.25009 8.54944 5.18936L8.55627 5.18057L8.63733 5.10244C8.5223 5.12288 8.43916 5.12266 8.39514 5.08682C8.32651 5.10672 8.2458 5.10958 8.15393 5.09463C8.05582 5.07856 7.98804 5.01253 7.9469 4.9042ZM5.94299 4.9042C5.90186 5.01251 5.83404 5.07854 5.73596 5.09463C5.64395 5.1096 5.56248 5.10681 5.49377 5.08682C5.45935 5.11481 5.40161 5.12109 5.32288 5.11319L5.38928 5.17569C5.46693 5.15483 5.7585 5.08149 6.14807 5.02725C6.06611 5.0138 5.99702 4.97303 5.94299 4.9042ZM7.43909 4.91885C7.40385 4.9499 7.36297 4.97026 7.31799 4.9833C7.39176 4.98885 7.46397 4.99418 7.53381 5.00186C7.49421 4.98249 7.46185 4.95543 7.43909 4.91885ZM6.45081 4.91885C6.42881 4.95421 6.39774 4.98061 6.35999 4.9999C6.42713 4.99273 6.49636 4.98751 6.56702 4.98233C6.52395 4.96913 6.4848 4.9488 6.45081 4.91885ZM6.94495 4.84854C6.90982 4.90316 6.86313 4.94522 6.8053 4.97061C6.83961 4.96954 6.87411 4.96807 6.90881 4.96768V4.9667H6.96545V4.96768C7.00576 4.96813 7.0458 4.96924 7.08557 4.97061C7.02736 4.94527 6.98025 4.90342 6.94495 4.84854Z" fill="#C88A02"/>
<path fill-rule="evenodd" clip-rule="evenodd" d="M6.94511 3.34192C7.06109 3.34192 7.15511 3.2479 7.15511 3.13192C7.15511 3.01594 7.06109 2.92192 6.94511 2.92192C6.82913 2.92192 6.73511 3.01594 6.73511 3.13192C6.73511 3.2479 6.82913 3.34192 6.94511 3.34192Z" fill="#005BBF"/>
<path fill-rule="evenodd" clip-rule="evenodd" d="M6.80851 4.373C6.81299 4.39605 6.81999 4.41751 6.82883 4.43663C6.80171 4.42627 6.76951 4.42027 6.73497 4.42027C6.63832 4.42027 6.55997 4.46728 6.55997 4.52527C6.55997 4.58326 6.63832 4.63027 6.73497 4.63027C6.83162 4.63027 6.90997 4.58326 6.90997 4.52527C6.90997 4.58326 6.98832 4.63027 7.08497 4.63027C7.18162 4.63027 7.25997 4.58326 7.25997 4.52527C7.25997 4.46728 7.18162 4.42027 7.08497 4.42027C7.06064 4.42027 7.03747 4.42324 7.01642 4.42863C7.0215 4.39992 7.02128 4.36701 7.01465 4.33293C6.99621 4.23806 6.93511 4.17012 6.87819 4.18118C6.82127 4.19225 6.79007 4.27813 6.80851 4.373ZM6.90997 4.52527L6.90989 4.52206L6.91005 4.52211L6.90997 4.52527ZM5.77883 4.50663C5.76999 4.48751 5.76299 4.46605 5.75851 4.443C5.74007 4.34813 5.77127 4.26225 5.82819 4.25118C5.88511 4.24012 5.94621 4.30806 5.96465 4.40293C5.97128 4.43701 5.9715 4.46992 5.96642 4.49863C5.98747 4.49324 6.01064 4.49027 6.03497 4.49027C6.13162 4.49027 6.20997 4.53728 6.20997 4.59527C6.20997 4.65326 6.13162 4.70027 6.03497 4.70027C5.93832 4.70027 5.85997 4.65326 5.85997 4.59527L5.86005 4.59211L5.85989 4.59206L5.85997 4.59527C5.85997 4.65326 5.78162 4.70027 5.68497 4.70027C5.58832 4.70027 5.50997 4.65326 5.50997 4.59527C5.50997 4.53728 5.58832 4.49027 5.68497 4.49027C5.71951 4.49027 5.75171 4.49627 5.77883 4.50663ZM7.97118 4.57062C7.96311 4.62804 7.87898 4.66369 7.78327 4.65024C7.68756 4.63679 7.61652 4.57933 7.62459 4.52191C7.63266 4.46448 7.71679 4.42883 7.8125 4.44228C7.8467 4.44709 7.87775 4.45751 7.90316 4.47155C7.89707 4.45138 7.89312 4.42916 7.8919 4.40571C7.88684 4.3092 7.92968 4.22849 7.98759 4.22546C8.0455 4.22242 8.09655 4.2982 8.10161 4.39472C8.10343 4.42939 8.09906 4.46201 8.09004 4.48973C8.11164 4.48733 8.135 4.48761 8.15909 4.49099C8.2548 4.50444 8.32584 4.5619 8.31777 4.61933C8.3097 4.67675 8.22557 4.7124 8.12986 4.69895C8.03415 4.6855 7.96311 4.62804 7.97118 4.57062ZM7.97118 4.57062L7.97155 4.56743L7.9717 4.56751L7.97118 4.57062ZM8.63769 4.84828C8.72303 4.89365 8.81428 4.88893 8.8415 4.83772L8.84293 4.83486C8.85134 4.84375 8.86129 4.85023 8.87265 4.8537C8.9281 4.87066 8.99596 4.80947 9.02422 4.71705C9.05248 4.62462 9.03043 4.53595 8.97498 4.51899C8.91952 4.50204 8.85166 4.56322 8.8234 4.65565C8.81653 4.6781 8.81264 4.70033 8.81147 4.72137C8.79238 4.69949 8.76677 4.67907 8.73628 4.66286C8.65094 4.61748 8.55969 4.62221 8.53247 4.67341C8.50524 4.72461 8.55235 4.8029 8.63769 4.84828ZM5.20298 4.86972C5.11765 4.91509 5.0264 4.91037 4.99917 4.85917C4.99867 4.85822 4.99819 4.85726 4.99774 4.8563C4.98933 4.8652 4.97938 4.87167 4.96803 4.87514C4.91257 4.8921 4.84471 4.83092 4.81645 4.73849C4.78819 4.64606 4.81024 4.55739 4.8657 4.54044C4.92115 4.52348 4.98902 4.58466 5.01728 4.67709C5.02414 4.69954 5.02804 4.72178 5.02921 4.74281C5.04829 4.72093 5.0739 4.70051 5.1044 4.6843C5.18973 4.63893 5.28098 4.64365 5.30821 4.69485C5.33543 4.74605 5.28832 4.82434 5.20298 4.86972Z" fill="#C88A02"/>
<path d="M7.01221 2.63967H7.10791V2.78616H7.01221V3.07717H7.10791V3.22366H6.77002V3.07717H6.8667V2.78616H6.77002V2.63967H6.8667V2.54787H7.01221V2.63967Z" fill="#C88A02"/>
<rect x="6.83997" y="3.34" width="0.28" height="0.91" fill="#C88A02"/>
<path d="M5.71286 3.4924L5.71164 3.56239C5.09095 3.55155 4.73492 3.64213 4.64454 3.82266C4.5511 4.00931 4.56848 4.23619 4.6994 4.50571L4.63644 4.5363C4.49675 4.24874 4.47767 3.99962 4.58194 3.79133C4.68928 3.57693 5.06591 3.48111 5.71286 3.4924Z" fill="white"/>
<path d="M5.83295 4.11312L5.79706 4.17322C5.66189 4.09251 5.59424 3.95477 5.59424 3.76496C5.59424 3.49216 5.73477 3.33219 6.04561 3.22271C6.244 3.15285 6.51501 3.18149 6.85939 3.30635L6.83553 3.37216C6.50493 3.2523 6.24912 3.22526 6.06886 3.28874C5.78375 3.38915 5.66424 3.5252 5.66424 3.76496C5.66424 3.93153 5.72043 4.04593 5.83295 4.11312Z" fill="white"/>
<path d="M4.78763 4.39837L4.65554 4.44476C4.51849 4.05454 4.55763 3.78954 4.79181 3.67522C4.99816 3.57449 5.2989 3.5335 5.69553 3.54957L5.68986 3.68945C5.31434 3.67424 5.03496 3.71232 4.85322 3.80103C4.69932 3.87616 4.67117 4.06678 4.78763 4.39837Z" fill="#C88A02"/>
<path d="M6.33082 3.39919C6.01074 3.39919 5.87929 3.47714 5.8042 3.70732C5.75634 3.85401 5.80275 3.97921 5.95325 4.09607L5.86738 4.20665C5.67254 4.05535 5.60385 3.87005 5.6711 3.6639C5.7668 3.37056 5.95459 3.25919 6.33082 3.25919C6.57742 3.25919 6.76952 3.32397 6.90327 3.45582L6.92413 3.47638V4.15136H6.78413V3.53622C6.67967 3.44549 6.52962 3.39919 6.33082 3.39919Z" fill="#C88A02"/>
<path d="M8.15567 3.5624L8.15689 3.63239C8.77758 3.62155 9.13361 3.71213 9.22399 3.89266C9.31743 4.07931 9.30005 4.30619 9.16913 4.57571L9.23209 4.6063C9.37178 4.31874 9.39086 4.06962 9.28659 3.86133C9.17925 3.64693 8.80262 3.55111 8.15567 3.5624Z" fill="white"/>
<path d="M7.93646 4.12767L7.97235 4.18777C8.10752 4.10706 8.17517 3.96933 8.17517 3.77951C8.17517 3.50671 8.03464 3.34674 7.7238 3.23727C7.52541 3.1674 7.2544 3.19605 6.91002 3.32091L6.93388 3.38672C7.26448 3.26685 7.52029 3.23981 7.70054 3.30329C7.98566 3.40371 8.10517 3.53975 8.10517 3.77951C8.10517 3.94608 8.04898 4.06049 7.93646 4.12767Z" fill="white"/>
<path d="M9.12448 4.46837L9.25657 4.51476C9.39362 4.12454 9.35448 3.85954 9.1203 3.74522C8.91394 3.64449 8.61321 3.6035 8.21658 3.61957L8.22225 3.75945C8.59777 3.74424 8.87715 3.78232 9.05889 3.87103C9.21279 3.94616 9.24094 4.13678 9.12448 4.46837Z" fill="#C88A02"/>
<path d="M7.57335 3.41C7.89344 3.41 8.02489 3.48796 8.09998 3.71814C8.14784 3.86483 8.10142 3.99002 7.95093 4.10689L8.0368 4.21746C8.23163 4.06616 8.30033 3.88086 8.23308 3.67472C8.13737 3.38137 7.94959 3.27 7.57335 3.27C7.32676 3.27 7.13466 3.33479 7.0009 3.46664L6.98005 3.4872V4.16218H7.12005V3.54704C7.22451 3.4563 7.37456 3.41 7.57335 3.41Z" fill="#C88A02"/>
<path opacity="0.3" fill-rule="evenodd" clip-rule="evenodd" d="M4.67004 5.79H9.22004V9.87802C9.22004 9.87802 8.88206 11.25 6.94504 11.25C5.00803 11.25 4.67004 9.84185 4.67004 9.84185V5.79Z" fill="#E1E5E8"/>
<mask id="mask3_1662_723" style="mask-type:luminance" maskUnits="userSpaceOnUse" x="4" y="5" width="6" height="7">
<path fill-rule="evenodd" clip-rule="evenodd" d="M4.67004 5.79H9.22004V9.87802C9.22004 9.87802 8.88206 11.25 6.94504 11.25C5.00803 11.25 4.67004 9.84185 4.67004 9.84185V5.79Z" fill="white"/>
</mask>
<g mask="url(#mask3_1662_723)">
<rect x="4.67004" y="8.31" width="2.31" height="2.73" fill="#FFC034"/>
<rect x="4.95007" y="8.45" width="0.28" height="2.59" fill="#AD1619"/>
<rect x="5.93005" y="8.45" width="0.28" height="2.59" fill="#AD1619"/>
<rect x="5.44006" y="8.45" width="0.28" height="2.59" fill="#AD1619"/>
<rect x="6.42004" y="8.45" width="0.28" height="2.59" fill="#AD1619"/>
<rect x="4.67004" y="5.72" width="2.31" height="2.66" fill="#AD1619"/>
<rect x="6.91003" y="8.24" width="2.31" height="2.66" fill="#AD1619"/>
<rect x="6.91003" y="5.79" width="2.45" height="2.59" fill="#F1F9FF"/>
<path d="M5.86023 6.58105H5.99988V6.29004H6.20984V6.58105H6.4198V6.94336H6.20984V7.59668H6.4198V7.95996H5.16003V7.59668H5.37V6.94336H5.16003V6.58105H5.29968V6.29004H5.50964V6.58105H5.65027V6H5.86023V6.58105Z" fill="#C88A02"/>
<path d="M8.11182 6.12189L8.25517 5.96843L8.55613 6.24957L8.41278 6.40303L8.11182 6.12189Z" fill="#C88A02"/>
<path d="M8.9751 10.0872L8.97217 10.0999C8.88315 10.469 8.58148 10.6546 8.1001 10.6546C7.61815 10.6546 7.31661 10.4637 7.22803 10.0863L7.2251 10.0745V8.555H8.9751V10.0872ZM7.43506 10.0501C7.50223 10.3148 7.71348 10.4446 8.1001 10.4446C8.48694 10.4446 8.69818 10.318 8.76514 10.0618V8.76496H7.43506V10.0501Z" fill="#FFC034"/>
<path d="M8.17273 9.30321L8.67957 8.75243L8.78308 8.84715L8.26355 9.41258H8.8446V9.62254H8.25281L8.78308 10.2007L8.67957 10.2954L8.17273 9.74364V10.4819H8.02625V9.67039L7.45203 10.2954L7.34851 10.2007L7.87878 9.62254H7.39734V9.41258H7.86804L7.34851 8.84715L7.45203 8.75243L8.02625 9.37645V8.68309H8.17273V9.30321Z" fill="#FFC034"/>
<path fill-rule="evenodd" clip-rule="evenodd" d="M8.42672 10.9017C8.42672 10.9017 6.9441 11.0183 6.9441 10.062C6.9441 10.062 6.92996 10.9017 5.38184 10.9017V11.6566H8.42672V10.9017Z" fill="#F1F9FF"/>
<path fill-rule="evenodd" clip-rule="evenodd" d="M6.94504 8.87C7.23499 8.87 7.47004 8.61928 7.47004 8.31C7.47004 8.00072 7.23499 7.75 6.94504 7.75C6.65509 7.75 6.42004 8.00072 6.42004 8.31C6.42004 8.61928 6.65509 8.87 6.94504 8.87Z" fill="#005BBF" stroke="#AD1619" stroke-width="0.729167"/>
</g>
</g>
</g>
<defs>
<clipPath id="clip0_1662_723">
<rect width="20" height="15" fill="white"/>
</clipPath>
</defs>
</svg>
