<svg width="20" height="15" viewBox="0 0 20 15" fill="none" xmlns="http://www.w3.org/2000/svg">
<g clip-path="url(#clip0_1662_861)">
<rect width="20" height="15" fill="white"/>
<path fill-rule="evenodd" clip-rule="evenodd" d="M0 0V15H20V0H0Z" fill="#2E42A5"/>
<mask id="mask0_1662_861" style="mask-type:luminance" maskUnits="userSpaceOnUse" x="0" y="0" width="20" height="15">
<path fill-rule="evenodd" clip-rule="evenodd" d="M0 0V15H20V0H0Z" fill="white"/>
</mask>
<g mask="url(#mask0_1662_861)">
<path d="M-2.22693 13.9284L2.17413 15.7897L20.0999 2.02365L22.4214 -0.742273L17.7151 -1.36437L10.4036 4.5678L4.51856 8.56469L-2.22693 13.9284Z" fill="white"/>
<path d="M-1.62439 15.2324L0.617745 16.3126L21.5878 -0.999262H18.4395L-1.62439 15.2324Z" fill="#F50100"/>
<path d="M22.2271 13.9284L17.826 15.7897L-0.0997791 2.02365L-2.42124 -0.742273L2.28506 -1.36437L9.59656 4.5678L15.4816 8.56469L22.2271 13.9284Z" fill="white"/>
<path d="M22.0769 14.8643L19.8348 15.9444L10.9055 8.53233L8.25819 7.7042L-2.64459 -0.7328H0.503632L11.4003 7.50394L14.2947 8.49696L22.0769 14.8643Z" fill="#F50100"/>
<mask id="path-7-inside-1_1662_861" fill="white">
<path d="M12.361 5H21.2672V10H12.361V16.25H7.63928V10H-1.23279V5H7.63928V-1.25H12.361V5Z"/>
</mask>
<path d="M12.361 5H21.2672V10H12.361V16.25H7.63928V10H-1.23279V5H7.63928V-1.25H12.361V5Z" fill="#F50100"/>
<path d="M12.361 5H11.111V6.25H12.361V5ZM21.2672 5H22.5172V3.75H21.2672V5ZM21.2672 10V11.25H22.5172V10H21.2672ZM12.361 10V8.75H11.111V10H12.361ZM12.361 16.25V17.5H13.611V16.25H12.361ZM7.63928 16.25H6.38928V17.5H7.63928V16.25ZM7.63928 10H8.88928V8.75H7.63928V10ZM-1.23279 10H-2.48279V11.25H-1.23279V10ZM-1.23279 5V3.75H-2.48279V5H-1.23279ZM7.63928 5V6.25H8.88928V5H7.63928ZM7.63928 -1.25V-2.5H6.38928V-1.25H7.63928ZM12.361 -1.25H13.611V-2.5H12.361V-1.25ZM12.361 5V6.25H21.2672V5V3.75H12.361V5ZM21.2672 5H20.0172V10H21.2672H22.5172V5H21.2672ZM21.2672 10V8.75H12.361V10V11.25H21.2672V10ZM12.361 10H11.111V16.25H12.361H13.611V10H12.361ZM12.361 16.25V15H7.63928V16.25V17.5H12.361V16.25ZM7.63928 16.25H8.88928V10H7.63928H6.38928V16.25H7.63928ZM7.63928 10V8.75H-1.23279V10V11.25H7.63928V10ZM-1.23279 10H0.0172119V5H-1.23279H-2.48279V10H-1.23279ZM-1.23279 5V6.25H7.63928V5V3.75H-1.23279V5ZM7.63928 5H8.88928V-1.25H7.63928H6.38928V5H7.63928ZM7.63928 -1.25V0H12.361V-1.25V-2.5H7.63928V-1.25ZM12.361 -1.25H11.111V5H12.361H13.611V-1.25H12.361Z" fill="white" mask="url(#path-7-inside-1_1662_861)"/>
</g>
</g>
<defs>
<clipPath id="clip0_1662_861">
<rect width="20" height="15" fill="white"/>
</clipPath>
</defs>
</svg>
